<svg width="28" height="28" viewBox="0 0 28 28" fill="none" xmlns="http://www.w3.org/2000/svg">
<path d="M27.1797 24.0078H0.820312C0.367281 24.0078 0 23.6405 0 23.1875V17.3906C0 16.0337 1.10398 14.9297 2.46094 14.9297H25.5391C26.896 14.9297 28 16.0337 28 17.3906V23.1875C28 23.6405 27.6327 24.0078 27.1797 24.0078ZM1.64062 22.3672H26.3594V17.3906C26.3594 16.9383 25.9914 16.5703 25.5391 16.5703H2.46094C2.00862 16.5703 1.64062 16.9383 1.64062 17.3906V22.3672Z" fill="#7129F9"/>
<path d="M4.375 26.1953C3.92197 26.1953 3.55469 25.828 3.55469 25.375V23.1875C3.55469 22.7345 3.92197 22.3672 4.375 22.3672C4.82803 22.3672 5.19531 22.7345 5.19531 23.1875V25.375C5.19531 25.828 4.82803 26.1953 4.375 26.1953Z" fill="#7129F9"/>
<path d="M23.625 26.1953C23.172 26.1953 22.8047 25.828 22.8047 25.375V23.1875C22.8047 22.7345 23.172 22.3672 23.625 22.3672C24.078 22.3672 24.4453 22.7345 24.4453 23.1875V25.375C24.4453 25.828 24.078 26.1953 23.625 26.1953Z" fill="#7129F9"/>
<path d="M12.25 16.5703H7C6.54697 16.5703 6.17969 16.203 6.17969 15.75V11.375C6.17969 10.922 6.54697 10.5547 7 10.5547H12.25C12.703 10.5547 13.0703 10.922 13.0703 11.375V15.75C13.0703 16.203 12.703 16.5703 12.25 16.5703ZM7.82031 14.9297H11.4297V12.1953H7.82031V14.9297Z" fill="#7129F9"/>
<path d="M21 16.5703H15.75C15.297 16.5703 14.9297 16.203 14.9297 15.75V11.375C14.9297 10.922 15.297 10.5547 15.75 10.5547H21C21.453 10.5547 21.8203 10.922 21.8203 11.375V15.75C21.8203 16.203 21.453 16.5703 21 16.5703ZM16.5703 14.9297H20.1797V12.1953H16.5703V14.9297Z" fill="#7129F9"/>
<path d="M25.375 16.5703H2.625C2.17197 16.5703 1.80469 16.203 1.80469 15.75V14C1.80469 10.7425 3.07322 7.68004 5.3766 5.3766C7.67998 3.07316 10.7425 1.80469 14 1.80469C17.2526 1.80469 20.3125 3.0707 22.6162 5.36949C24.9242 7.67266 26.1953 10.7377 26.1953 14V15.75C26.1953 16.203 25.828 16.5703 25.375 16.5703ZM3.44531 14.9297H24.5547V14C24.5547 8.18016 19.8199 3.44531 14 3.44531C8.18016 3.44531 3.44531 8.18016 3.44531 14V14.9297Z" fill="#7129F9"/>
</svg>
