<svg width="24" height="24" viewBox="0 0 24 24" fill="none" xmlns="http://www.w3.org/2000/svg">
<path d="M9.72851 2.25909C5.61517 3.21447 2.47544 6.70809 2.04932 11H6.04728C6.29798 8.31344 7.50237 5.77692 8.64552 3.89709C9.01684 3.28647 9.38783 2.73525 9.72851 2.25909Z" fill="#CBD0DF"/>
<path d="M2.04932 13C2.47544 17.2919 5.61517 20.7855 9.72851 21.7409C9.38783 21.2648 9.01684 20.7135 8.64552 20.1029C7.50237 18.2231 6.29798 15.6866 6.04728 13H2.04932Z" fill="#CBD0DF"/>
<path d="M14.2714 21.7409C14.6121 21.2648 14.983 20.7135 15.3544 20.1029C16.4975 18.2231 17.7019 15.6866 17.9526 13H21.9506C21.5244 17.2919 18.3847 20.7855 14.2714 21.7409Z" fill="#CBD0DF"/>
<path d="M21.9506 11H17.9526C17.7019 8.31344 16.4975 5.77692 15.3544 3.89709C14.983 3.28647 14.6121 2.73525 14.2714 2.25909C18.3847 3.21447 21.5244 6.70809 21.9506 11Z" fill="#CBD0DF"/>
<path d="M13.6455 4.93625C14.6998 6.66996 15.696 8.82489 15.9421 11H8.05777C8.30391 8.82489 9.30008 6.66996 10.3544 4.93625C10.9518 3.95376 11.5503 3.13513 11.9999 2.56178C12.4496 3.13513 13.0481 3.95376 13.6455 4.93625Z" fill="#CBD0DF"/>
<path d="M10.3544 19.0638C9.30008 17.33 8.30391 15.1751 8.05777 13H15.9421C15.696 15.1751 14.6998 17.33 13.6455 19.0638C13.0481 20.0462 12.4496 20.8649 11.9999 21.4382C11.5503 20.8649 10.9518 20.0462 10.3544 19.0638Z" fill="#CBD0DF"/>
</svg>
