<svg width="24" height="24" viewBox="0 0 24 24" fill="none" xmlns="http://www.w3.org/2000/svg">
<path fill-rule="evenodd" clip-rule="evenodd" d="M6 2C3.79086 2 2 3.79086 2 6V18C2 20.2091 3.79086 22 6 22H18C20.2091 22 22 20.2091 22 18V6C22 3.79086 20.2091 2 18 2H6ZM9 6C9 5.44772 8.55228 5 8 5C7.44772 5 7 5.44772 7 6V7.17071C5.83481 7.58254 5 8.69378 5 10C5 11.3062 5.83481 12.4175 7 12.8293V18C7 18.5523 7.44772 19 8 19C8.55228 19 9 18.5523 9 18V12.8293C10.1652 12.4175 11 11.3062 11 10C11 8.69378 10.1652 7.58254 9 7.17071V6ZM8 9C7.44772 9 7 9.44772 7 10C7 10.5523 7.44772 11 8 11C8.55228 11 9 10.5523 9 10C9 9.44772 8.55228 9 8 9ZM15 14C15 13.4477 15.4477 13 16 13C16.5523 13 17 13.4477 17 14C17 14.5523 16.5523 15 16 15C15.4477 15 15 14.5523 15 14ZM15 11.1707V6C15 5.44772 15.4477 5 16 5C16.5523 5 17 5.44772 17 6V11.1707C18.1652 11.5825 19 12.6938 19 14C19 15.3062 18.1652 16.4175 17 16.8293V18C17 18.5523 16.5523 19 16 19C15.4477 19 15 18.5523 15 18V16.8293C13.8348 16.4175 13 15.3062 13 14C13 12.6938 13.8348 11.5825 15 11.1707Z" fill="#CBD0DF"/>
</svg>
