<svg width="28" height="28" viewBox="0 0 28 28" fill="none" xmlns="http://www.w3.org/2000/svg">
<g clip-path="url(#clip0)">
<path d="M27.125 1.64062H0.875119C0.422089 1.64062 0.0548096 1.27334 0.0548096 0.820309C0.0548096 0.36728 0.422089 0 0.875119 0H27.125C27.578 0 27.9453 0.36728 27.9453 0.820309C27.9453 1.27334 27.578 1.64062 27.125 1.64062Z" fill="#7129F9"/>
<path d="M14.0001 6.07031H2.62512C2.17209 6.07031 1.80481 5.70303 1.80481 5.25V0.820312C1.80481 0.367281 2.17209 0 2.62512 0H14.0001C14.4532 0 14.8204 0.367281 14.8204 0.820312V5.25C14.8204 5.70303 14.4532 6.07031 14.0001 6.07031ZM3.44543 4.42969H13.1798V1.64062H3.44543V4.42969Z" fill="#7129F9"/>
<path d="M25.3751 6.07031H14.0001C13.5471 6.07031 13.1798 5.70303 13.1798 5.25V0.820312C13.1798 0.367281 13.5471 0 14.0001 0H25.3751C25.8282 0 26.1954 0.367281 26.1954 0.820312V5.25C26.1954 5.70303 25.8282 6.07031 25.3751 6.07031ZM14.8204 4.42969H24.5548V1.64062H14.8204V4.42969Z" fill="#7129F9"/>
<path d="M7.43763 13.5078H3.93762C3.48459 13.5078 3.11731 13.1405 3.11731 12.6875V10.5C3.11731 9.08272 4.27034 7.92969 5.68763 7.92969C7.10491 7.92969 8.25794 9.08272 8.25794 10.5V12.6875C8.25794 13.1405 7.89066 13.5078 7.43763 13.5078ZM4.75794 11.8672H6.61731V10.5C6.61731 9.98736 6.20027 9.57031 5.68763 9.57031C5.17498 9.57031 4.75794 9.98736 4.75794 10.5V11.8672Z" fill="#7129F9"/>
<path d="M5.68762 9.57031C5.23459 9.57031 4.86731 9.20303 4.86731 8.75V5.25C4.86731 4.79697 5.23459 4.42969 5.68762 4.42969C6.14065 4.42969 6.50793 4.79697 6.50793 5.25V8.75C6.50793 9.20303 6.14065 9.57031 5.68762 9.57031Z" fill="#7129F9"/>
<path d="M24.0626 13.5078H20.5626C20.1096 13.5078 19.7423 13.1405 19.7423 12.6875V10.5C19.7423 9.08269 20.8953 7.92966 22.3126 7.92966C23.7299 7.92966 24.8829 9.08269 24.8829 10.5V12.6875C24.8829 13.1405 24.5157 13.5078 24.0626 13.5078ZM21.3829 11.8672H23.2423V10.5C23.2423 9.98733 22.8253 9.57028 22.3126 9.57028C21.8 9.57028 21.3829 9.98733 21.3829 10.5V11.8672Z" fill="#7129F9"/>
<path d="M22.3125 9.57029C21.8595 9.57029 21.4922 9.20301 21.4922 8.74998V5.24998C21.4922 4.79695 21.8595 4.42967 22.3125 4.42967C22.7655 4.42967 23.1328 4.79695 23.1328 5.24998V8.74998C23.1328 9.20301 22.7655 9.57029 22.3125 9.57029Z" fill="#7129F9"/>
<path d="M15.7501 13.5078H12.2501C11.7971 13.5078 11.4298 13.1405 11.4298 12.6875V10.5C11.4298 9.08272 12.5828 7.92969 14.0001 7.92969C15.4174 7.92969 16.5704 9.08272 16.5704 10.5V12.6875C16.5704 13.1405 16.2032 13.5078 15.7501 13.5078ZM13.0704 11.8672H14.9298V10.5C14.9298 9.98736 14.5128 9.57031 14.0001 9.57031C13.4875 9.57031 13.0704 9.98736 13.0704 10.5V11.8672Z" fill="#7129F9"/>
<path d="M14.0001 9.57031C13.5471 9.57031 13.1798 9.20303 13.1798 8.75V5.25C13.1798 4.79697 13.5471 4.42969 14.0001 4.42969C14.4532 4.42969 14.8204 4.79697 14.8204 5.25V8.75C14.8204 9.20303 14.4532 9.57031 14.0001 9.57031Z" fill="#7129F9"/>
<path d="M25.3749 27.9999C24.9219 27.9999 24.5546 27.6326 24.5546 27.1796V17.4452H3.44531V27.1796C3.44531 27.6326 3.07803 27.9999 2.625 27.9999C2.17197 27.9999 1.80469 27.6326 1.80469 27.1796V16.6249C1.80469 16.1719 2.17197 15.8046 2.625 15.8046H25.3749C25.8279 15.8046 26.1952 16.1719 26.1952 16.6249V27.1796C26.1952 27.6326 25.8279 27.9999 25.3749 27.9999Z" fill="#7129F9"/>
<path d="M27.125 17.4452H0.875119C0.422089 17.4452 0.0548096 17.078 0.0548096 16.6249C0.0548096 16.1719 0.422089 15.8046 0.875119 15.8046H27.125C27.578 15.8046 27.9453 16.1719 27.9453 16.6249C27.9453 17.078 27.578 17.4452 27.125 17.4452Z" fill="#7129F9"/>
<path d="M11.8114 28.0001C11.4035 28.0001 11.0499 27.6959 10.9984 27.2806L10.2126 20.9452H7.72485L6.93905 27.2806C6.88327 27.7302 6.47338 28.0496 6.02402 27.9937C5.57443 27.9379 5.25511 27.5283 5.31089 27.0787L6.18589 20.024C6.23686 19.6131 6.58593 19.3047 6.99997 19.3047H10.9375C11.3515 19.3047 11.7006 19.6132 11.7515 20.024L12.6265 27.0787C12.6823 27.5283 12.3631 27.938 11.9134 27.9937C11.8792 27.998 11.8451 28.0001 11.8114 28.0001Z" fill="#7129F9"/>
<path d="M11.3685 24.3905H6.5697C6.11667 24.3905 5.74939 24.0233 5.74939 23.5702C5.74939 23.1172 6.11667 22.7499 6.5697 22.7499H11.3685C11.8216 22.7499 12.1888 23.1172 12.1888 23.5702C12.1888 24.0233 11.8216 24.3905 11.3685 24.3905Z" fill="#7129F9"/>
<path d="M11.8127 20.9452H6.12524C5.67221 20.9452 5.30493 20.578 5.30493 20.1249C5.30493 19.6719 5.67221 19.3046 6.12524 19.3046H11.8127C12.2658 19.3046 12.6331 19.6719 12.6331 20.1249C12.6331 20.578 12.2658 20.9452 11.8127 20.9452Z" fill="#7129F9"/>
<path d="M21.874 28.0001C21.466 28.0001 21.1124 27.6959 21.061 27.2806L20.2752 20.9452H17.7874L17.0016 27.2806C16.9459 27.7302 16.5367 28.0497 16.0866 27.9937C15.637 27.9379 15.3177 27.5283 15.3735 27.0787L16.2485 20.024C16.2995 19.6131 16.6486 19.3047 17.0626 19.3047H21.0001C21.4141 19.3047 21.7632 19.6132 21.8142 20.024L22.6892 27.0787C22.745 27.5283 22.4257 27.938 21.9761 27.9937C21.9418 27.998 21.9077 28.0001 21.874 28.0001Z" fill="#7129F9"/>
<path d="M21.4309 24.3905H16.6321C16.179 24.3905 15.8118 24.0233 15.8118 23.5702C15.8118 23.1172 16.179 22.7499 16.6321 22.7499H21.4309C21.8839 22.7499 22.2512 23.1172 22.2512 23.5702C22.2512 24.0233 21.8839 24.3905 21.4309 24.3905Z" fill="#7129F9"/>
<path d="M21.875 20.9452H16.1875C15.7345 20.9452 15.3672 20.578 15.3672 20.1249C15.3672 19.6719 15.7345 19.3046 16.1875 19.3046H21.875C22.328 19.3046 22.6953 19.6719 22.6953 20.1249C22.6953 20.578 22.328 20.9452 21.875 20.9452Z" fill="#7129F9"/>
</g>
<defs>
<clipPath id="clip0">
<rect width="28" height="28" fill="white"/>
</clipPath>
</defs>
</svg>
