<svg width="28" height="28" viewBox="0 0 28 28" fill="none" xmlns="http://www.w3.org/2000/svg">
<path d="M8.75 27.5018C8.29697 27.5018 7.92969 27.1345 7.92969 26.6815V24.9862C7.92969 24.5332 8.29697 24.1659 8.75 24.1659C9.20303 24.1659 9.57031 24.5332 9.57031 24.9862V26.6815C9.57031 27.1345 9.20303 27.5018 8.75 27.5018Z" fill="#7129F9"/>
<path d="M19.25 27.5018C18.797 27.5018 18.4297 27.1345 18.4297 26.6815V24.9862C18.4297 24.5332 18.797 24.1659 19.25 24.1659C19.703 24.1659 20.0703 24.5332 20.0703 24.9862V26.6815C20.0703 27.1345 19.703 27.5018 19.25 27.5018Z" fill="#7129F9"/>
<path d="M18.1481 25.7518H9.85191C6.28169 25.7518 3.22685 23.2023 2.58821 19.6896L1.81793 15.4532C1.7744 15.2139 1.83937 14.9676 1.99523 14.7808C2.15109 14.5941 2.38176 14.4861 2.62501 14.4861H25.375C25.6183 14.4861 25.8489 14.5941 26.0048 14.7808C26.1607 14.9676 26.2256 15.2139 26.1821 15.4532L25.4118 19.6896C24.7732 23.2023 21.7184 25.7518 18.1481 25.7518ZM3.60791 16.1268L4.20236 19.3961C4.69909 22.1282 7.07504 24.1112 9.85191 24.1112H18.1481C20.925 24.1112 23.301 22.1282 23.7977 19.3962L24.3921 16.1268H3.60791Z" fill="#7129F9"/>
<path d="M27.1797 16.1268H0.820312C0.367281 16.1268 0 15.7595 0 15.3065C0 14.8535 0.367281 14.4862 0.820312 14.4862H27.1797C27.6327 14.4862 28 14.8535 28 15.3065C28 15.7595 27.6327 16.1268 27.1797 16.1268Z" fill="#7129F9"/>
<path d="M25.375 16.1269C24.922 16.1269 24.5547 15.7596 24.5547 15.3065V4.22932C24.5547 3.66932 24.3364 3.1435 23.9399 2.74865C23.5448 2.35523 23.0211 2.13889 22.4645 2.13889C22.4615 2.13889 22.4586 2.13889 22.4556 2.13889C21.9765 2.14085 21.5088 2.30929 21.1385 2.61314L20.1231 3.44619C19.7729 3.73341 19.256 3.68255 18.9686 3.33228C18.6812 2.982 18.7323 2.46515 19.0825 2.17782L20.0978 1.34477C20.7588 0.802433 21.5937 0.50176 22.4488 0.49826H22.4646C23.4583 0.49826 24.3928 0.884245 25.0976 1.58621C25.8054 2.29114 26.1953 3.22979 26.1953 4.22932V15.3065C26.1953 15.7596 25.828 16.1269 25.375 16.1269Z" fill="#7129F9"/>
<path d="M18.3657 7.96419C18.1481 7.96419 17.9394 7.87779 17.7857 7.7239L14.692 4.63028C14.3717 4.30998 14.3717 3.79056 14.692 3.4702L15.9294 2.23273C17.1022 1.06007 19.0104 1.06001 20.1832 2.23273C21.3559 3.4055 21.3559 5.31371 20.1832 6.48648L18.9457 7.72395C18.7919 7.87773 18.5833 7.96419 18.3657 7.96419ZM16.4321 4.05027L18.3657 5.9838L19.0231 5.3264C19.5562 4.79331 19.5562 3.92596 19.0231 3.39287C18.49 2.85978 17.6225 2.85978 17.0895 3.39287L16.4321 4.05027Z" fill="#7129F9"/>
<path d="M11.375 9.12679C11.165 9.12679 10.9551 9.04673 10.795 8.88649C10.4746 8.56614 10.4746 8.04677 10.795 7.72641L11.2325 7.28891C11.5528 6.96856 12.0722 6.96856 12.3925 7.28891C12.7129 7.60927 12.7129 8.12864 12.3925 8.449L11.955 8.88649C11.7949 9.04667 11.5849 9.12679 11.375 9.12679Z" fill="#7129F9"/>
<path d="M14.875 9.56429C14.665 9.56429 14.4551 9.48423 14.295 9.32399C13.9746 9.00364 13.9746 8.48427 14.295 8.16391L14.7325 7.72641C15.0528 7.40606 15.5722 7.40606 15.8925 7.72641C16.2129 8.04677 16.2129 8.56614 15.8925 8.8865L15.455 9.32399C15.2949 9.48417 15.0849 9.56429 14.875 9.56429Z" fill="#7129F9"/>
<path d="M11.375 12.6268C11.165 12.6268 10.9551 12.5468 10.795 12.3865C10.4746 12.0662 10.4746 11.5468 10.795 11.2264L11.2325 10.7889C11.5528 10.4686 12.0722 10.4686 12.3925 10.7889C12.7129 11.1093 12.7129 11.6287 12.3925 11.949L11.955 12.3865C11.7949 12.5467 11.5849 12.6268 11.375 12.6268Z" fill="#7129F9"/>
</svg>
