<svg width="20" height="20" viewBox="0 0 20 20" fill="none" xmlns="http://www.w3.org/2000/svg">
<path fill-rule="evenodd" clip-rule="evenodd" d="M8.33329 3.33332C5.57187 3.33332 3.33329 5.5719 3.33329 8.33332C3.33329 11.0947 5.57187 13.3333 8.33329 13.3333C11.0947 13.3333 13.3333 11.0947 13.3333 8.33332C13.3333 5.5719 11.0947 3.33332 8.33329 3.33332ZM1.66663 8.33332C1.66663 4.65143 4.65139 1.66666 8.33329 1.66666C12.0152 1.66666 15 4.65143 15 8.33332C15 12.0152 12.0152 15 8.33329 15C4.65139 15 1.66663 12.0152 1.66663 8.33332Z" fill="#A5A5A5"/>
<path fill-rule="evenodd" clip-rule="evenodd" d="M11.9107 11.9107C12.2361 11.5853 12.7638 11.5853 13.0892 11.9107L18.0892 16.9107C18.4147 17.2362 18.4147 17.7638 18.0892 18.0892C17.7638 18.4147 17.2361 18.4147 16.9107 18.0892L11.9107 13.0892C11.5853 12.7638 11.5853 12.2362 11.9107 11.9107Z" fill="#A5A5A5"/>
</svg>
